<?xml version="1.0" encoding="utf-8"?>
<!-- Generator: Adobe Illustrator 23.0.4, SVG Export Plug-In . SVG Version: 6.00 Build 0)  -->
<svg version="1.1" id="Capa_1" xmlns="http://www.w3.org/2000/svg" xmlns:xlink="http://www.w3.org/1999/xlink" x="0px" y="0px"
	 viewBox="0 0 100 100" style="enable-background:new 0 0 100 100;" xml:space="preserve">
<style type="text/css">
	.st0{fill:#7D3276;}
	.st1{fill:#52E252;}
</style>
<g>
	<path class="st1" d="M78.8,97.2H21.2c-10.2,0-18.4-8.3-18.4-18.4V21.2c0-10.2,8.3-18.4,18.4-18.4h57.6c10.2,0,18.4,8.3,18.4,18.4
		v57.6C97.2,88.9,88.9,97.2,78.8,97.2z M21.2,10.9c-5.7,0-10.3,4.6-10.3,10.3v57.6c0,5.7,4.6,10.3,10.3,10.3h57.6
		c5.7,0,10.3-4.6,10.3-10.3V21.2c0-5.7-4.6-10.3-10.3-10.3H21.2z"/>
	<path class="st1" d="M38.7,72.1c-0.6,0-1.1,0-1.7-0.1c-3.3-0.5-6.3-2.4-8.1-5.2l-8.5-13.2c-1.6-2.6-0.9-6,1.7-7.6
		c2.6-1.6,6-0.9,7.6,1.7l8.5,13.2c0.1,0.2,0.2,0.3,0.4,0.3c0.2,0,0.3,0,0.5-0.1l34.5-31.7c2.2-2.1,5.7-1.9,7.8,0.3
		c2.1,2.2,1.9,5.7-0.3,7.8L46.2,69.3C44.1,71.2,41.4,72.1,38.7,72.1z"/>
</g>
</svg>
