<?xml version="1.0" encoding="iso-8859-1"?>
<!-- Generator: Adobe Illustrator 19.0.0, SVG Export Plug-In . SVG Version: 6.00 Build 0)  -->
<svg version="1.1" id="Layer_1" xmlns="http://www.w3.org/2000/svg" xmlns:xlink="http://www.w3.org/1999/xlink" x="0px" y="0px"
	 viewBox="0 0 512 512" style="enable-background:new 0 0 512 512;" xml:space="preserve">
<polygon style="fill:#E0E0E2;" points="486.871,311.363 429.864,342.343 392.127,272.89 363.31,219.863 363.31,503.89 
	147.048,503.89 147.048,222.847 82.115,342.343 25.109,311.363 147.048,100.021 188.678,87.045 256.801,200.583 321.679,87.045 
	364.088,100.021 419.008,194.56 "/>
<path style="fill:#FFFFFF;" d="M419.008,194.56c-5.601,27.552-14.727,53.828-26.881,78.33l-28.817-53.027v100.378
	c-50.476,68.825-127.649,116.857-216.262,128.827V222.847L82.115,342.343l-57.007-30.979l121.939-211.342l41.63-12.976
	l68.122,113.537l64.879-113.537l42.409,12.976L419.008,194.56z"/>
<rect x="147.048" y="283.303" style="fill:#E0E0E2;" width="77.314" height="32.439"/>
<g>
	<rect x="224.361" y="264.921" style="fill:#FFFFFF;" width="32.439" height="88.127"/>
	<rect x="256.801" y="282.762" style="fill:#FFFFFF;" width="32.439" height="104.346"/>
</g>
<rect x="289.24" y="283.303" style="fill:#E0E0E2;" width="74.07" height="32.439"/>
<path d="M369.5,93.197l-104.59-30.174V45.481c6.405-3.699,16.22-11.023,16.22-21.151C281.13,10.914,270.216,0,256.801,0
	s-24.329,10.914-24.329,24.329h16.22c0-4.472,3.638-8.11,8.11-8.11s8.11,3.638,8.114,8.037c-0.327,1.82-5.671,6.282-11.428,8.891
	l-4.796,2.147v27.65L141.608,93.223L13.922,314.516l71.439,38.824l53.576-98.582V512h232.482V251.773l55.198,101.567l71.462-38.836
	L369.5,93.197z M256.75,77.6l52.704,14.494l-52.824,92.441l-55.431-92.386L256.75,77.6z M78.856,331.345L36.287,308.21
	l116.201-201.39l32.517-10.135l62.552,104.253l-27.937,55.872h-3.368v18.382h-61.094v-84.248L78.856,331.345z M297.35,291.413h57.85
	v16.22h-57.85V291.413z M281.13,323.852v55.147h-16.22v-17.842v-70.285h16.22V323.852z M248.691,274.653v70.285h-16.22v-21.086
	v-48.659v-2.163h16.22V274.653z M216.252,307.633h-61.094v-16.22h61.094V307.633z M155.158,323.852h61.094v37.305h32.439v25.951
	v8.11V495.78h-93.533V323.852z M355.2,495.78h-90.289V395.219h32.439v-71.366h57.85V495.78z M355.2,187.961v87.232h-57.85v-0.541
	h-32.439v-17.842h-27.157l26.2-52.399l61.551-107.715l33.167,10.148l116.999,201.377l-42.547,23.123L355.2,187.961z"/>
<rect x="328.167" y="466.585" width="16.22" height="16.22"/>
<rect x="295.728" y="466.585" width="16.22" height="16.22"/>
<rect x="165.971" y="466.585" width="16.22" height="16.22"/>
<rect x="198.41" y="466.585" width="16.22" height="16.22"/>
<g>
</g>
<g>
</g>
<g>
</g>
<g>
</g>
<g>
</g>
<g>
</g>
<g>
</g>
<g>
</g>
<g>
</g>
<g>
</g>
<g>
</g>
<g>
</g>
<g>
</g>
<g>
</g>
<g>
</g>
</svg>
