<?xml version="1.0" encoding="iso-8859-1"?>
<!-- Generator: Adobe Illustrator 19.0.0, SVG Export Plug-In . SVG Version: 6.00 Build 0)  -->
<svg version="1.1" id="Capa_1" xmlns="http://www.w3.org/2000/svg" xmlns:xlink="http://www.w3.org/1999/xlink" x="0px" y="0px"
	 viewBox="0 0 512 512" style="enable-background:new 0 0 512 512;" xml:space="preserve">
<g>
	<g>
		<g>
			<path d="M256,0C143.078,0,51.2,114.842,51.2,256S143.078,512,256,512s204.8-114.842,204.8-256S368.922,0,256,0z M256,494.933
				C152.482,494.933,68.267,387.746,68.267,256S152.482,17.067,256,17.067S443.733,124.254,443.733,256S359.518,494.933,256,494.933
				z"/>
			<path d="M256,34.133c-94.106,0-170.667,99.533-170.667,221.867S161.894,477.867,256,477.867S426.667,378.334,426.667,256
				S350.106,34.133,256,34.133z M256,460.8c-84.693,0-153.6-91.878-153.6-204.8S171.307,51.2,256,51.2S409.6,143.078,409.6,256
				S340.693,460.8,256,460.8z"/>
			<path d="M301.167,121.967l-153.6,153.6c-3.336,3.336-3.336,8.73,0,12.066c1.664,1.664,3.849,2.5,6.033,2.5
				c2.185,0,4.369-0.836,6.033-2.5l153.6-153.6c3.336-3.337,3.336-8.73,0-12.066C309.897,118.63,304.504,118.63,301.167,121.967z"/>
			<path d="M162.133,230.4c2.185,0,4.369-0.836,6.033-2.5l93.867-93.867c3.336-3.337,3.336-8.73,0-12.066
				c-3.337-3.336-8.73-3.336-12.066,0L156.1,215.834c-3.337,3.337-3.337,8.73,0,12.066C157.764,229.564,159.949,230.4,162.133,230.4
				z"/>
		</g>
	</g>
</g>
<g>
</g>
<g>
</g>
<g>
</g>
<g>
</g>
<g>
</g>
<g>
</g>
<g>
</g>
<g>
</g>
<g>
</g>
<g>
</g>
<g>
</g>
<g>
</g>
<g>
</g>
<g>
</g>
<g>
</g>
</svg>
