<?xml version="1.0" encoding="iso-8859-1"?>
<!-- Generator: Adobe Illustrator 18.1.1, SVG Export Plug-In . SVG Version: 6.00 Build 0)  -->
<svg version="1.1" id="Capa_1" xmlns="http://www.w3.org/2000/svg" xmlns:xlink="http://www.w3.org/1999/xlink" x="0px" y="0px"
	 viewBox="0 0 50.249 50.249" style="enable-background:new 0 0 50.249 50.249;" xml:space="preserve">
<g>
	<g>
		<path style="fill:#010002;" d="M45.229,0H5.021c-2.619,0-4.75,2.131-4.75,4.75v38.333c0,2.619,2.131,4.75,4.75,4.75h1.508
			c-0.085,0.205-0.133,0.43-0.133,0.666c0,0.965,0.785,1.75,1.75,1.75h12.083c0.965,0,1.75-0.785,1.75-1.75
			c0-0.236-0.048-0.461-0.133-0.666h8.122c-0.085,0.205-0.133,0.43-0.133,0.666c0,0.965,0.785,1.75,1.75,1.75h12.082
			c0.965,0,1.75-0.785,1.75-1.75c0-0.238-0.049-0.465-0.135-0.671c2.594-0.029,4.697-2.144,4.697-4.745V4.75
			C49.979,2.131,47.847,0,45.229,0z M20.979,48.5c0,0.413-0.336,0.75-0.75,0.75H8.146c-0.414,0-0.75-0.337-0.75-0.75
			c0-0.294,0.174-0.543,0.421-0.666h12.74C20.805,47.957,20.979,48.206,20.979,48.5z M43.667,49.25H31.584
			c-0.413,0-0.75-0.337-0.75-0.75c0-0.294,0.175-0.543,0.422-0.666h12.738c0.247,0.123,0.422,0.372,0.422,0.666
			C44.417,48.913,44.079,49.25,43.667,49.25z M47.979,43.084c0,1.517-1.233,2.75-2.75,2.75H5.021c-1.516,0-2.75-1.233-2.75-2.75
			V4.75C2.271,3.234,3.505,2,5.021,2h40.208c1.517,0,2.75,1.234,2.75,2.75V43.084z"/>
		<path style="fill:#010002;" d="M13.784,18.163c-3.797,0-6.888,3.091-6.888,6.89c0,3.798,3.091,6.889,6.888,6.889
			c3.799,0,6.89-3.091,6.89-6.889C20.674,21.254,17.583,18.163,13.784,18.163z M13.784,30.744c-3.137,0-5.69-2.554-5.69-5.691
			s2.553-5.692,5.69-5.692c3.139,0,5.692,2.555,5.692,5.692S16.921,30.744,13.784,30.744z"/>
		<path style="fill:#010002;" d="M13.781,22.818c-1.239,0-2.246,1.008-2.246,2.246s1.007,2.246,2.246,2.246
			c1.237,0,2.246-1.008,2.246-2.246C16.027,23.826,15.017,22.818,13.781,22.818z M13.781,26.711c-0.908,0-1.648-0.739-1.648-1.647
			s0.74-1.646,1.648-1.646c0.908,0,1.646,0.738,1.646,1.646S14.688,26.711,13.781,26.711z"/>
		<path style="fill:#010002;" d="M11.652,26.873c-0.076,0-0.153,0.029-0.212,0.088l-1.514,1.501
			c-0.117,0.115-0.118,0.306-0.001,0.424c0.117,0.117,0.307,0.117,0.424,0l1.514-1.502c0.117-0.115,0.118-0.306,0.001-0.423
			C11.805,26.902,11.727,26.873,11.652,26.873z"/>
		<path style="fill:#010002;" d="M16.095,23.215l1.513-1.503c0.117-0.116,0.118-0.306,0.001-0.424
			c-0.059-0.059-0.135-0.088-0.213-0.088c-0.075,0-0.152,0.029-0.211,0.088l-1.513,1.501c-0.117,0.116-0.118,0.306-0.001,0.424
			C15.788,23.33,15.977,23.332,16.095,23.215z"/>
		<path style="fill:#010002;" d="M16.095,26.961c-0.059-0.059-0.136-0.088-0.211-0.088c-0.078,0-0.154,0.03-0.213,0.088
			c-0.117,0.118-0.116,0.308,0.001,0.423l1.513,1.502c0.118,0.117,0.308,0.115,0.424,0c0.117-0.118,0.116-0.309-0.001-0.424
			L16.095,26.961z"/>
		<path style="fill:#010002;" d="M11.439,23.33c0.117,0.119,0.308,0.115,0.424-0.001c0.117-0.117,0.116-0.307-0.001-0.423
			l-1.514-1.502c-0.059-0.059-0.135-0.087-0.211-0.087c-0.077,0-0.154,0.029-0.213,0.088c-0.117,0.118-0.116,0.308,0.001,0.424
			L11.439,23.33z"/>
		<path style="fill:#010002;" d="M16.34,25.077c0.001,0.166,0.136,0.299,0.301,0.299c0,0,0,0,0.001,0l2.131-0.007
			c0.166-0.002,0.3-0.136,0.3-0.302c-0.002-0.165-0.135-0.298-0.301-0.298l-2.133,0.008C16.473,24.778,16.34,24.912,16.34,25.077z"
			/>
		<path style="fill:#010002;" d="M11.194,25.047c-0.001-0.165-0.134-0.298-0.3-0.298c0,0,0,0-0.002,0l-2.131,0.009
			c-0.165,0-0.299,0.134-0.298,0.3c0,0.165,0.134,0.298,0.299,0.298h0.001l2.132-0.009C11.062,25.347,11.194,25.213,11.194,25.047z"
			/>
		<path style="fill:#010002;" d="M13.927,22.55c0.167-0.002,0.3-0.136,0.299-0.302l-0.007-2.132c0-0.166-0.135-0.299-0.3-0.299
			c-0.001,0-0.001,0-0.001,0c-0.166,0.001-0.299,0.136-0.298,0.302l0.008,2.131C13.629,22.416,13.762,22.55,13.927,22.55z"/>
		<path style="fill:#010002;" d="M13.92,27.623c-0.167,0-0.3,0.137-0.299,0.301l0.009,2.133c0,0.164,0.134,0.299,0.299,0.299
			c0.001,0,0.001,0,0.001,0c0.166-0.001,0.299-0.137,0.298-0.301l-0.009-2.133C14.218,27.758,14.084,27.623,13.92,27.623z"/>
		<path style="fill:#010002;" d="M44.909,29.522V18.39c0.478-0.176,0.821-0.625,0.821-1.164v-3.125c0-0.539-0.344-0.988-0.821-1.164
			V7.251c0-0.276-0.224-0.5-0.5-0.5s-0.5,0.224-0.5,0.5v5.686c-0.477,0.176-0.82,0.625-0.82,1.163v3.125
			c0,0.539,0.344,0.987,0.82,1.163v11.146c-0.46,0.185-0.785,0.631-0.785,1.156v3.125c0,0.525,0.326,0.972,0.785,1.156v4.243
			c0,0.276,0.224,0.5,0.5,0.5s0.5-0.224,0.5-0.5v-4.229c0.494-0.166,0.855-0.619,0.855-1.17V30.69
			C45.764,30.141,45.403,29.688,44.909,29.522z"/>
		<path style="fill:#010002;" d="M37.972,19.449H25.125c-0.981,0-1.75,0.628-1.75,1.429v7.297c0,0.801,0.769,1.429,1.75,1.429
			h12.848c0.981,0,1.75-0.628,1.75-1.429v-7.297C39.722,20.077,38.954,19.449,37.972,19.449z M38.722,28.175
			c0,0.202-0.32,0.429-0.75,0.429H25.125c-0.429,0-0.75-0.227-0.75-0.429v-7.297c0-0.203,0.321-0.429,0.75-0.429h12.848
			c0.43,0,0.75,0.227,0.75,0.429V28.175z"/>
	</g>
</g>
<g>
</g>
<g>
</g>
<g>
</g>
<g>
</g>
<g>
</g>
<g>
</g>
<g>
</g>
<g>
</g>
<g>
</g>
<g>
</g>
<g>
</g>
<g>
</g>
<g>
</g>
<g>
</g>
<g>
</g>
</svg>
