<?xml version="1.0" encoding="iso-8859-1"?>
<!-- Generator: Adobe Illustrator 19.0.0, SVG Export Plug-In . SVG Version: 6.00 Build 0)  -->
<svg version="1.1" id="Capa_1" xmlns="http://www.w3.org/2000/svg" xmlns:xlink="http://www.w3.org/1999/xlink" x="0px" y="0px"
	 viewBox="0 0 512.001 512.001" style="enable-background:new 0 0 512.001 512.001;" xml:space="preserve">
<g>
	<g>
		<path d="M234.466,93.208c-15.024-31.818-47.458-52.377-82.629-52.377c-5.523,0-10,4.478-10,10c0,5.522,4.478,10.001,10.001,10.001
			c27.472,0,52.807,16.061,64.544,40.916c1.707,3.615,5.3,5.732,9.049,5.732c1.43,0,2.884-0.309,4.263-0.959
			C234.688,104.163,236.825,98.202,234.466,93.208z"/>
	</g>
</g>
<g>
	<g>
		<path d="M243.169,131.681c-0.039-5.521-4.56-9.996-10.07-9.929c-5.523,0.039-9.968,4.548-9.929,10.071v0.343
			c0,5.522,4.477,10,10,10c5.523,0,10-4.478,10-10L243.169,131.681z"/>
	</g>
</g>
<g>
	<g>
		<path d="M181.839,112.342c-5.523,0-10,4.478-10,10v42.921c0,5.522,4.477,10,10,10c5.523,0,10-4.478,10-10v-42.921
			C191.839,116.819,187.362,112.342,181.839,112.342z"/>
	</g>
</g>
<g>
	<g>
		<path d="M141.839,112.342c-5.523,0-10,4.478-10,10v42.921c0,5.522,4.477,10,10,10s10-4.478,10-10v-42.921
			C151.839,116.82,147.362,112.342,141.839,112.342z"/>
	</g>
</g>
<g>
	<g>
		<path d="M101.839,112.342c-5.523,0-10,4.478-10,10v42.921c0,5.522,4.477,10,10,10s10-4.478,10-10v-42.921
			C111.839,116.82,107.362,112.342,101.839,112.342z"/>
	</g>
</g>
<g>
	<g>
		<path d="M506.621,177.341c-12.844-6.707-28.191-6.73-41.024-0.076c-0.01,0.005-0.106,0.054-0.116,0.06
			c-7.141,3.703-15.668,3.702-22.81-0.001c-0.04-0.021-0.08-0.042-0.121-0.062c-12.881-6.634-28.239-6.614-41.107,0.058
			c-4.903,2.542-6.817,8.578-4.275,13.48c2.543,4.904,8.579,6.817,13.481,4.275c7.142-3.703,15.668-3.703,22.809,0
			c0.04,0.021,0.081,0.041,0.121,0.062c6.427,3.31,13.469,4.963,20.507,4.963c7.07,0,14.138-1.669,20.571-5.006
			c0.01-0.005,0.105-0.054,0.116-0.059c7.075-3.67,15.52-3.658,22.588,0.034c4.896,2.555,10.937,0.661,13.493-4.234
			C513.412,185.939,511.516,179.898,506.621,177.341z"/>
	</g>
</g>
<g>
	<g>
		<path d="M506.621,132.529c-12.843-6.707-28.19-6.73-41.139-0.017c-7.13,3.698-15.645,3.702-22.781,0.015
			c-0.012-0.006-0.023-0.012-0.034-0.018c-12.905-6.692-28.316-6.694-41.223-0.002c-4.903,2.542-6.817,8.578-4.275,13.48
			c2.543,4.903,8.579,6.817,13.481,4.275c7.131-3.697,15.644-3.702,22.777-0.017c0.013,0.007,0.025,0.014,0.038,0.021
			c6.443,3.341,13.51,5.014,20.588,5.014c7.101,0,14.214-1.685,20.72-5.058c7.078-3.67,15.523-3.658,22.589,0.034
			c4.896,2.554,10.937,0.661,13.493-4.234C513.412,141.128,511.516,135.087,506.621,132.529z"/>
	</g>
</g>
<g>
	<g>
		<path d="M506.621,88.623c-12.841-6.705-28.188-6.729-41.139-0.017c-7.122,3.692-15.623,3.703-22.753,0.029
			c-0.021-0.011-0.041-0.021-0.062-0.032c-12.905-6.692-28.316-6.694-41.223-0.002c-4.903,2.542-6.817,8.578-4.275,13.48
			c2.543,4.904,8.578,6.818,13.481,4.276c7.122-3.693,15.623-3.702,22.751-0.03c0.021,0.012,0.042,0.022,0.064,0.034
			c6.443,3.341,13.51,5.014,20.588,5.014c7.101,0,14.214-1.685,20.72-5.058c7.078-3.671,15.523-3.658,22.589,0.034
			c4.896,2.555,10.937,0.662,13.493-4.234C513.412,97.221,511.516,91.18,506.621,88.623z"/>
	</g>
</g>
<g>
	<g>
		<path d="M342.086,64.023h-81.417C248.458,45.48,231.98,29.935,212.727,18.85C191.155,6.429,166.501-0.127,141.49,0.002
			C64.026,0.278,0.558,63.519,0.011,140.977c-0.269,38.132,14.374,74.027,41.232,101.075c8.154,8.212,17.134,15.296,26.749,21.19
			v127.774c0,33.656,24.954,61.583,57.33,66.278c3.247,30.702,29.271,54.705,60.796,54.705c33.586,0,60.911-27.45,60.911-61.19
			v-93.81c0-12.437,4.45-24.43,12.53-33.771c3.612-4.174,3.155-10.489-1.022-14.102c-4.177-3.612-10.492-3.156-14.105,1.021
			c-11.223,12.973-17.404,29.613-17.404,46.854v93.81c0,22.713-18.353,41.19-40.911,41.19c-20.525,0-37.585-15.126-40.65-34.828
			c31.967-5.051,56.49-32.791,56.49-66.156V270.726c3.734-1.739,7.402-3.629,10.979-5.696
			c19.162-11.076,35.566-26.578,47.732-45.051h81.418c17.134,0,31.074-13.939,31.074-31.073v-93.81
			C373.16,77.962,359.221,64.023,342.086,64.023z M181.959,391.017c0,25.907-21.077,46.983-46.983,46.983
			c-25.908,0.001-46.984-21.075-46.984-46.983v-117.61c16.906,6.948,35.175,10.594,54.017,10.594c13.581,0,27.037-1.961,39.95-5.74
			V391.017z M353.16,188.906c0,6.105-4.968,11.073-11.074,11.073h-86.935c-3.507,0-6.758,1.837-8.567,4.842
			c-22.312,37.057-61.406,59.18-104.577,59.18c-20.196,0-39.626-4.874-56.97-14.056c-1.27-1.262-2.88-2.175-4.677-2.613
			c-8.996-5.287-17.374-11.766-24.927-19.372c-23.073-23.237-35.653-54.079-35.422-86.842
			c0.47-66.546,54.998-120.879,121.551-121.116c0.144-0.001,0.287-0.001,0.43-0.001c42.551,0,82.598,22.646,104.594,59.18
			c1.809,3.005,5.06,4.842,8.567,4.842h59.991v90.491c0,5.522,4.477,10,10,10s10-4.478,10-10V84.022h6.942
			c6.106,0,11.074,4.968,11.074,11.073V188.906z"/>
	</g>
</g>
<g>
	<g>
		<path d="M348.829,306.462c-13.595-13.472-31.585-20.89-50.657-20.889c-8.595,0-16.994,1.518-24.963,4.509
			c-5.17,1.941-7.788,7.707-5.847,12.877c1.941,5.171,7.706,7.788,12.877,5.848c5.713-2.146,11.747-3.233,17.934-3.233
			c13.765-0.001,26.755,5.36,36.579,15.095c9.827,9.738,15.239,22.642,15.239,36.332v31.351h-0.001c0,5.522,4.477,10,10,10
			s10-4.478,10-10V357C369.99,337.933,362.475,319.984,348.829,306.462z"/>
	</g>
</g>
<g>
	<g>
		<path d="M367.062,413.121c-1.86-1.86-4.441-2.931-7.07-2.931c-2.63,0-5.21,1.07-7.07,2.931c-1.86,1.87-2.93,4.439-2.93,7.069
			c0,2.641,1.07,5.21,2.93,7.08c1.86,1.86,4.44,2.931,7.07,2.931s5.21-1.07,7.07-2.931c1.86-1.87,2.93-4.439,2.93-7.08
			C369.992,417.56,368.922,414.991,367.062,413.121z"/>
	</g>
</g>
<g>
	<g>
		<path d="M501.992,374.001h-9.974c-22.042,0-39.974,17.933-39.974,39.975v36.835c0,22.713-18.353,41.19-40.912,41.19
			c-22.686,0-41.142-18.478-41.142-41.19c0-5.522-4.477-10-10-10s-10,4.478-10,10c0,33.74,27.428,61.19,61.142,61.19
			c33.587,0,60.912-27.45,60.912-61.19v-36.835c0-11.014,8.96-19.975,19.974-19.975h9.974c5.523,0,10-4.478,10-10
			C511.992,378.479,507.514,374.001,501.992,374.001z"/>
	</g>
</g>
<g>
</g>
<g>
</g>
<g>
</g>
<g>
</g>
<g>
</g>
<g>
</g>
<g>
</g>
<g>
</g>
<g>
</g>
<g>
</g>
<g>
</g>
<g>
</g>
<g>
</g>
<g>
</g>
<g>
</g>
</svg>
