<svg height="512pt" viewBox="0 -55 512 512" width="512pt" xmlns="http://www.w3.org/2000/svg"><path d="m488.699219 0h-465.398438c-12.847656 0-23.300781 10.457031-23.300781 23.3125v321.679688c0 12.851562 10.453125 23.3125 23.300781 23.3125h12.1875v16.703124c0 8.816407 7.171875 15.992188 15.988281 15.992188h46.738282c8.816406 0 15.988281-7.175781 15.988281-15.992188v-16.703124h287.136719v16.703124c0 8.816407 7.171875 15.992188 15.988281 15.992188h46.738281c8.816406 0 15.988282-7.175781 15.988282-15.992188v-16.703124h8.644531c12.847656 0 23.300781-10.460938 23.300781-23.3125v-321.679688c0-12.855469-10.453125-23.3125-23.300781-23.3125zm-465.398438 15.03125h465.398438c4.566406 0 8.277343 3.714844 8.277343 8.28125v298.027344h-481.953124v-298.027344c0-4.566406 3.710937-8.28125 8.277343-8.28125zm75.878907 369.972656c0 .507813-.457032.964844-.960938.964844h-46.742188c-.515624 0-.964843-.449219-.964843-.964844v-16.703125h48.667969zm365.851562 0c0 .507813-.460938.964844-.964844.964844h-46.738281c-.515625 0-.964844-.449219-.964844-.964844v-16.703125h48.667969zm23.667969-31.734375h-465.398438c-4.566406 0-8.277343-3.710937-8.277343-8.28125v-8.621093h481.953124v8.621093c0 4.570313-3.710937 8.28125-8.277343 8.28125zm0 0"/><path d="m45.722656 302.933594h147.5625c4.148438 0 7.511719-3.363282 7.511719-7.515625 0-4.148438-3.363281-7.515625-7.511719-7.515625h-147.5625c-.96875 0-1.785156-.816406-1.785156-1.785156v-235.269532c0-.96875.816406-1.785156 1.785156-1.785156h337.417969c.953125 0 1.757813.816406 1.757813 1.785156v235.269532c0 .96875-.804688 1.785156-1.757813 1.785156h-155.214844c-4.152343 0-7.515625 3.367187-7.515625 7.515625 0 4.152343 3.363282 7.515625 7.515625 7.515625h155.214844c9.253906 0 16.78125-7.542969 16.78125-16.816406v-235.269532c0-9.273437-7.527344-16.816406-16.78125-16.816406h-337.417969c-9.269531 0-16.8125 7.542969-16.8125 16.816406v235.269532c0 9.273437 7.542969 16.816406 16.8125 16.816406zm0 0"/><path d="m431.101562 171.203125h37.558594c7.90625 0 14.34375-6.421875 14.34375-14.320313v-12.617187c0-7.914063-6.4375-14.351563-14.34375-14.351563h-37.558594c-7.890624 0-14.316406 6.4375-14.316406 14.351563v12.617187c.003906 7.898438 6.425782 14.320313 14.316406 14.320313zm.710938-26.257813h36.167969v11.230469h-36.167969zm0 0"/><path d="m431.101562 226.25h37.558594c7.90625 0 14.34375-6.4375 14.34375-14.347656v-12.621094c0-7.898438-6.4375-14.320312-14.34375-14.320312h-37.558594c-7.890624 0-14.316406 6.421874-14.316406 14.320312v12.621094c.003906 7.910156 6.425782 14.347656 14.316406 14.347656zm.710938-26.261719h36.167969v11.230469h-36.167969zm0 0"/><path d="m431.101562 281.265625h37.558594c7.90625 0 14.34375-6.421875 14.34375-14.320313v-12.648437c0-7.894531-6.4375-14.320313-14.34375-14.320313h-37.558594c-7.890624 0-14.316406 6.425782-14.316406 14.320313v12.648437c.003906 7.898438 6.425782 14.320313 14.316406 14.320313zm.710938-26.257813h36.167969v11.230469h-36.167969zm0 0"/><path d="m434.390625 116.1875h31.007813c9.707031 0 17.605468-7.886719 17.605468-17.582031v-18.691407c0-9.710937-7.898437-17.609374-17.605468-17.609374h-31.007813c-9.707031 0-17.605469 7.902343-17.605469 17.609374v18.691407c.003906 9.695312 7.898438 17.582031 17.605469 17.582031zm-2.578125-36.273438c0-1.398437 1.179688-2.578124 2.578125-2.578124h31.007813c1.398437 0 2.582031 1.179687 2.582031 2.578124v18.691407c0 1.382812-1.183594 2.550781-2.582031 2.550781h-31.007813c-1.398437 0-2.578125-1.167969-2.578125-2.550781zm0 0"/><path d="m351.480469 251.632812c8.660156 0 15.703125-7.046874 15.703125-15.710937v-135.585937c0-8.648438-7.042969-15.683594-15.703125-15.683594h-12.246094c-8.640625 0-15.675781 7.035156-15.675781 15.683594v135.585937c0 8.660156 7.035156 15.710937 15.675781 15.710937zm-12.894531-15.710937v-135.585937c0-.347657.304687-.652344.648437-.652344h12.246094c.371093 0 .679687.296875.679687.652344v135.585937c0 .355469-.324218.679687-.679687.679687h-12.246094c-.332031 0-.648437-.332031-.648437-.679687zm0 0"/></svg>