<?xml version="1.0" encoding="iso-8859-1"?>
<!-- Generator: Adobe Illustrator 19.0.0, SVG Export Plug-In . SVG Version: 6.00 Build 0)  -->
<svg version="1.1" id="Layer_1" xmlns="http://www.w3.org/2000/svg" xmlns:xlink="http://www.w3.org/1999/xlink" x="0px" y="0px"
	 viewBox="0 0 512 512" style="enable-background:new 0 0 512 512;" xml:space="preserve">
<g>
	<g>
		<path d="M391.109,13.847c-66.659,0-120.891,54.232-120.891,120.891v118.953c0,5.632,4.567,10.199,10.199,10.199h12.213v135.781
			c0,54.302,44.178,98.48,98.48,98.48s98.48-44.178,98.48-98.48V263.891h12.211c5.632,0,10.199-4.567,10.199-10.199V134.739
			C512,68.08,457.768,13.847,391.109,13.847z M391.108,477.754c-43.055,0-78.082-35.027-78.082-78.082V263.891h156.163v135.781
			h0.001C469.19,442.727,434.163,477.754,391.108,477.754z M491.601,243.493H290.615V134.739
			c0-55.412,45.081-100.493,100.493-100.493c55.412,0,100.493,45.081,100.493,100.493V243.493z"/>
	</g>
</g>
<g>
	<g>
		<path d="M444.769,358.893c-5.632,0-10.199,4.567-10.199,10.199v8.078c0,5.632,4.567,10.199,10.199,10.199
			s10.199-4.567,10.199-10.199v-8.078C454.968,363.46,450.401,358.893,444.769,358.893z"/>
	</g>
</g>
<g>
	<g>
		<path d="M444.769,275.805c-5.632,0-10.199,4.567-10.199,10.199v48.468c0,5.633,4.567,10.199,10.199,10.199
			s10.199-4.567,10.199-10.199v-48.468C454.968,280.372,450.401,275.805,444.769,275.805z"/>
	</g>
</g>
<g>
	<g>
		<path d="M120.891,13.847C54.231,13.847,0,68.08,0,134.739v118.953c0,5.632,4.566,10.199,10.199,10.199h12.213v135.781
			c0,54.302,44.178,98.48,98.479,98.48s98.479-44.178,98.479-98.48V263.891h12.213c5.633,0,10.199-4.567,10.199-10.199V134.739
			C241.783,68.08,187.551,13.847,120.891,13.847z M198.972,399.672c0,43.055-35.027,78.082-78.081,78.082
			S42.81,442.727,42.81,399.672V263.891h156.162V399.672z M221.384,243.493H20.398V134.739c0-55.412,45.081-100.493,100.493-100.493
			s100.493,45.081,100.493,100.493V243.493z"/>
	</g>
</g>
<g>
	<g>
		<path d="M174.552,358.893c-5.633,0-10.199,4.567-10.199,10.199v8.078c0,5.632,4.566,10.199,10.199,10.199
			c5.633,0,10.199-4.567,10.199-10.199v-8.078C184.751,363.46,180.185,358.893,174.552,358.893z"/>
	</g>
</g>
<g>
	<g>
		<path d="M174.552,275.805c-5.633,0-10.199,4.567-10.199,10.199v48.468c0,5.633,4.566,10.199,10.199,10.199
			c5.633,0,10.199-4.567,10.199-10.199v-48.468C184.751,280.372,180.185,275.805,174.552,275.805z"/>
	</g>
</g>
<g>
</g>
<g>
</g>
<g>
</g>
<g>
</g>
<g>
</g>
<g>
</g>
<g>
</g>
<g>
</g>
<g>
</g>
<g>
</g>
<g>
</g>
<g>
</g>
<g>
</g>
<g>
</g>
<g>
</g>
</svg>
